<!DOCTYPE svg PUBLIC "-//W3C//DTD SVG 1.1//EN" "http://www.w3.org/Graphics/SVG/1.1/DTD/svg11.dtd">
<!-- Uploaded to: SVG Repo, www.svgrepo.com, Transformed by: SVG Repo Mixer Tools -->
<svg fill="#ffffff" version="1.1" id="Layer_1" xmlns="http://www.w3.org/2000/svg" xmlns:xlink="http://www.w3.org/1999/xlink" viewBox="0 0 512.001 512.001" xml:space="preserve" width="800px" height="800px" stroke="#ffffff">
<g id="SVGRepo_bgCarrier" stroke-width="0"/>
<g id="SVGRepo_tracerCarrier" stroke-linecap="round" stroke-linejoin="round"/>
<g id="SVGRepo_iconCarrier"> <g> <g> <path d="M80,300.39c-22.056,0-40,17.943-40,40c0,22.056,17.944,40,40,40s40-17.944,40-40C120,318.333,102.056,300.39,80,300.39z M80,364.39c-13.235,0-24-10.766-24-24s10.765-24,24-24s24,10.766,24,24C104.001,353.624,93.235,364.39,80,364.39z"/> </g> </g> <g> <g> <path d="M504,348.39c0-35.215-19.063-66.056-47.406-82.763l-0.216-14.485c2.396,0.805,4.958,1.248,7.622,1.248h24 c13.233,0,24-10.766,24-23.999s-10.766-23.999-24-23.999h-24c-13.234,0-24.001,10.765-24.001,23.999 c0,0.544,0.025,1.083,0.061,1.618l0.419,28.04c-3.179-1.146-6.434-2.127-9.756-2.936l-29.205-92.482 c-11.756-37.228-45.885-62.241-84.926-62.241h-52.721V35.916h-15.526v64.475h-52.938c-39.041,0-73.168,25.013-84.925,62.241 l-29.206,92.483c-2.993,0.73-5.932,1.598-8.809,2.602l-0.469-29.454h-0.002c-0.069-13.175-10.806-23.872-23.996-23.872H24 c-13.234,0-24,10.765-24,23.999s10.766,23.999,24,23.999h24c2.937,0,5.753-0.533,8.357-1.503l0.224,14.058 C27.59,281.484,8.001,312.69,8.001,348.39v48H0v48h56v-16H16.001v-16.001h40v-16H24v-48c0-42.992,34.088-78.172,76.712-79.932 c12.174,29.425,32.318,54.643,58.524,73.181c26.349,18.64,57.013,29.13,89.109,30.572v16.652h15.526v-16.662 c32.015-1.478,62.598-11.962,88.886-30.557c26.21-18.54,46.356-43.758,58.532-73.188c42.593,1.731,76.71,36.923,76.71,79.934v48 H456v16h40v16.001h-40v16h56v-48h-8V348.39z M48,236.39H24c-4.411,0-8-3.59-8-8c0-4.411,3.588-8,8-8h24c4.411,0,8,3.588,8,8 C56,232.801,52.411,236.39,48,236.39z M195.407,116.39h121.185c12.332,0,24.062,3.053,34.382,8.539H161.026 C171.345,119.443,183.074,116.39,195.407,116.39z M408.009,252.39l-7.677-0.009l-1.95,5.196 c-10.761,28.675-29.732,53.227-54.865,71.005c-25.72,18.193-55.982,27.808-87.518,27.808c-31.539,0-61.803-9.618-87.524-27.813 c-25.134-17.78-44.105-42.336-54.863-71.014l-1.962-5.232l-7.651,0.059c-1.72,0-3.43,0.048-5.129,0.138l26.868-85.078 c3.242-10.267,8.565-19.393,15.411-26.996h107.196v15.935h-12.346c-11.027,0-20,8.972-20,20s8.973,20,20,20h40 c11.027,0,20-8.972,20-20s-8.973-20-20-20h-12.13v-15.935h106.979c6.846,7.602,12.169,16.729,15.411,26.996l26.866,85.077 C411.433,252.437,409.726,252.39,408.009,252.39z M276,172.39c2.206,0,3.999,1.795,3.999,4s-1.794,4-3.999,4h-40 c-2.206,0-3.999-1.795-3.999-4c0-2.206,1.794-4,3.999-4H276z M456.029,227.81c0.299-4.14,3.754-7.42,7.971-7.42h24 c4.411,0,8,3.588,8,8c0,4.411-3.589,8-8,8h-24c-4.114,0-7.509-3.122-7.949-7.119L456.029,227.81z"/> </g> </g> <g> <g> <path d="M64,396.389v64H112v-64H64z M96,444.389H80v-32h16V444.389z"/> </g> </g> <g> <g> <path d="M400,396.389v64h48v-64H400z M431.999,444.389H416v-32h15.999V444.389z"/> </g> </g> <g> <g> <rect x="120.002" y="396.11" width="272.215" height="15.526"/> </g> </g> <g> <g> <polygon points="79.634,468.56 79.634,484.086 40.302,484.086 40.302,452 24.777,452 24.777,499.612 95.159,499.612 95.159,468.56 "/> </g> </g> <g> <g> <polygon points="471.914,452 471.914,484.086 431.548,484.086 431.548,468.56 416.022,468.56 416.022,499.612 487.44,499.612 487.44,452 "/> </g> </g> <g> <g> <polygon points="120,252.239 120,267.763 248.346,267.763 248.346,324.69 263.871,324.69 263.871,267.763 392.216,267.763 392.216,252.239 "/> </g> </g> <g> <g> <path d="M336,195.957c-26.467,0-48.001,22.124-48.001,48H304c0-17.595,14.355-32,32-32c17.644,0,31.999,14.405,31.999,32H384 C384,218.081,362.467,195.957,336,195.957z"/> </g> </g> <g> <g> <rect x="72.388" y="331.938" width="15.526" height="15.526"/> </g> </g> <g> <g> <path d="M432,300.39c-22.056,0-40.001,17.943-40.001,40c0,22.056,17.944,40,40.001,40s40-17.943,40-40S454.055,300.39,432,300.39z M432,364.39c-13.235,0-24-10.766-24-24c0.001-13.234,10.766-24,24-24s24,10.766,24,24C456,353.624,445.235,364.39,432,364.39z"/> </g> </g> <g> <g> <rect x="424.303" y="331.938" width="15.526" height="15.526"/> </g> </g> <g> <g> <path d="M192,428.39v48H320v-48H192z M304,460.389h-96v-16h96V460.389z"/> </g> </g> <g> <g> <rect x="328.045" y="429.231" width="64.172" height="15.526"/> </g> </g> <g> <g> <rect x="120.002" y="429.231" width="64.172" height="15.526"/> </g> </g> <g> <g> <rect x="247.312" y="13.144" width="16.561" height="15.526"/> </g> </g> <g> <g> <path d="M403.999,36.39c-11.027,0-20,8.972-20,20c0,2.206-1.794,4-3.999,4h-56c-2.206,0-3.999-1.795-3.999-4s1.794-4,3.999-4h16 c11.027,0,20-8.972,20-20c0-11.028-8.973-20-20-20h-68v16h68c2.206,0,3.999,1.795,3.999,4c0,2.206-1.794,4-3.999,4h-16 c-11.027,0-20,8.972-20,20s8.973,20,20,20h56c11.027,0,20-8.972,20-20c0-2.206,1.794-4,3.999-4H432v-16H403.999z"/> </g> </g> <g> <g> <rect x="247.312" y="331.938" width="16.561" height="15.526"/> </g> </g> <g> <g> <rect x="160.369" y="277.081" width="79.698" height="15.526"/> </g> </g> <g> <g> <rect x="272.153" y="277.081" width="79.698" height="15.526"/> </g> </g> <g> <g> <rect x="139.849" y="170.391" transform="matrix(0.7071 -0.7071 0.7071 0.7071 -81.0387 161.1374)" width="28.284" height="16"/> </g> </g> <g> <g> <rect x="144.543" y="210.383" transform="matrix(0.7071 -0.7071 0.7071 0.7071 -104.6288 184.1707)" width="50.913" height="16"/> </g> </g> </g>
</svg>